<svg width="512" height="512" xmlns="http://www.w3.org/2000/svg">

 <g>
  <title>background</title>
  <rect fill="none" id="canvas_background" height="402" width="582" y="-1" x="-1"/>
 </g>
 <g>
  <title>Layer 1</title>
  <polygon fill="#ffffff" id="svg_2" points="269.275,247.494 242.703,247.494 242.686,275.246 269.271,275.246   "/>
  <path fill="#ffffff" id="svg_3" d="m242.636,353.585c0.225,0.025 0.449,0.054 0.673,0.077c0.214,0.021 0.43,0.044 0.644,0.064c0.747,0.074 1.497,0.14 2.248,0.2c0.27,0.021 0.54,0.044 0.809,0.063c0.706,0.053 1.414,0.095 2.122,0.135c0.299,0.017 0.599,0.036 0.898,0.051c0.713,0.034 1.428,0.059 2.144,0.081c0.284,0.009 0.566,0.022 0.851,0.028c0.988,0.023 1.98,0.038 2.975,0.038c0.996,0 1.988,-0.015 2.979,-0.038c0.278,-0.006 0.557,-0.02 0.836,-0.028c0.722,-0.021 1.443,-0.047 2.162,-0.082c0.292,-0.014 0.582,-0.033 0.873,-0.049c0.719,-0.04 1.439,-0.084 2.155,-0.137c0.257,-0.019 0.513,-0.04 0.769,-0.06c0.77,-0.063 1.537,-0.13 2.302,-0.204c0.194,-0.02 0.39,-0.04 0.585,-0.06c0.202,-0.021 0.402,-0.048 0.604,-0.07l0.007,-68.979l-26.592,0l-0.044,68.97z"/>
  <rect fill="#ffffff" id="svg_4" y="444.136" x="233.748" width="44.512" height="26.382"/>
  <path fill="#ffffff" id="svg_5" d="m256,113.423c-66.741,0 -121.039,54.034 -121.039,120.452c0,58.683 42.396,107.69 98.305,118.309l0.043,-67.566l-13.23,0c-2.587,0 -4.686,-2.098 -4.686,-4.686s2.099,-4.686 4.686,-4.686l13.236,0l0.017,-27.752l-13.253,0c-2.587,0 -4.686,-2.097 -4.686,-4.685c0,-2.588 2.099,-4.686 4.686,-4.686l13.259,0l0.019,-28.719l-34.037,-25.407c-2.074,-1.549 -2.5,-4.484 -0.953,-6.558c1.548,-2.073 4.484,-2.5 6.558,-0.952l35.92,26.813c1.186,0.885 1.883,2.278 1.882,3.757l-0.019,31.064l26.566,0l0.003,-31.067c0,-1.479 0.698,-2.871 1.883,-3.755l35.919,-26.813c2.074,-1.547 5.01,-1.122 6.558,0.952s1.122,5.009 -0.952,6.558l-34.036,25.408l-0.003,28.718l13.281,0c2.588,0 4.686,2.097 4.686,4.686c0,2.588 -2.098,4.685 -4.686,4.685l-13.281,0l-0.004,27.752l13.285,0c2.588,0 4.686,2.098 4.686,4.686s-2.098,4.686 -4.686,4.686l-13.285,0l-0.007,67.584c55.96,-10.578 98.404,-59.608 98.404,-118.326c0.001,-66.418 -54.297,-120.452 -121.039,-120.452z"/>
  <path fill="#ffffff" id="svg_6" d="m256,86.61c2.588,0 4.686,-2.098 4.686,-4.686l0,-35.756c0,-2.588 -2.098,-4.686 -4.686,-4.686c-2.587,0 -4.686,2.097 -4.686,4.686l0,35.756c0,2.588 2.099,4.686 4.686,4.686z"/>
  <path fill="#ffffff" id="svg_7" d="m329.984,106.333c0.74,0.429 1.549,0.633 2.347,0.633c1.616,0 3.188,-0.836 4.058,-2.335l17.963,-30.962c1.299,-2.238 0.537,-5.105 -1.701,-6.404c-2.236,-1.297 -5.105,-0.536 -6.404,1.702l-17.964,30.963c-1.299,2.238 -0.537,5.105 1.701,6.403z"/>
  <path fill="#ffffff" id="svg_8" d="m388.227,162.585c0.791,0 1.594,-0.201 2.33,-0.624l31.104,-17.878c2.243,-1.29 3.017,-4.154 1.728,-6.397c-1.289,-2.244 -4.152,-3.017 -6.396,-1.728l-31.104,17.878c-2.244,1.29 -3.018,4.154 -1.728,6.397c0.865,1.508 2.443,2.352 4.066,2.352z"/>
  <path fill="#ffffff" id="svg_9" d="m444.591,229.189l-35.92,0c-2.589,0 -4.686,2.097 -4.686,4.686c0,2.588 2.097,4.686 4.686,4.686l35.92,0c2.588,0 4.685,-2.098 4.685,-4.686c-0.001,-2.588 -2.097,-4.686 -4.685,-4.686z"/>
  <path fill="#ffffff" id="svg_10" d="m421.662,323.665l-31.104,-17.88c-2.247,-1.289 -5.108,-0.516 -6.397,1.727c-1.29,2.244 -0.517,5.108 1.727,6.397l31.104,17.88c0.736,0.423 1.539,0.625 2.331,0.625c1.622,0 3.199,-0.844 4.066,-2.352c1.289,-2.244 0.515,-5.108 -1.727,-6.397z"/>
  <path fill="#ffffff" id="svg_11" d="m121.451,305.785l-31.105,17.88c-2.244,1.289 -3.017,4.153 -1.728,6.397c0.867,1.508 2.444,2.352 4.067,2.352c0.792,0 1.595,-0.202 2.331,-0.625l31.105,-17.88c2.243,-1.289 3.016,-4.153 1.727,-6.397c-1.29,-2.242 -4.153,-3.016 -6.397,-1.727z"/>
  <path fill="#ffffff" id="svg_12" d="m108.014,233.875c0,-2.588 -2.097,-4.686 -4.686,-4.686l-35.919,0c-2.587,0 -4.686,2.097 -4.686,4.686c0,2.588 2.099,4.686 4.686,4.686l35.919,0c2.589,0 4.686,-2.098 4.686,-4.686z"/>
  <path fill="#ffffff" id="svg_13" d="m126.121,153.836l-31.105,-17.878c-2.245,-1.29 -5.107,-0.516 -6.397,1.728c-1.29,2.243 -0.516,5.107 1.728,6.397l31.105,17.878c0.736,0.423 1.539,0.624 2.33,0.624c1.623,0 3.2,-0.844 4.067,-2.352c1.288,-2.243 0.515,-5.107 -1.728,-6.397z"/>
  <path fill="#ffffff" id="svg_14" d="m175.612,104.631c0.87,1.498 2.442,2.335 4.058,2.335c0.798,0 1.606,-0.204 2.346,-0.633c2.238,-1.298 3,-4.166 1.702,-6.404l-17.957,-30.963c-1.298,-2.237 -4.163,-3 -6.403,-1.702c-2.238,1.299 -3.001,4.166 -1.703,6.404l17.957,30.963z"/>
  <path fill="#ffffff" id="svg_15" d="m327.183,390.507c2.588,0 4.686,-2.097 4.686,-4.686c0,-2.588 -2.098,-4.686 -4.686,-4.686l-30.966,0l0,-23.74c-0.401,0.129 -0.807,0.239 -1.209,0.364c-0.529,0.166 -1.063,0.322 -1.594,0.48c-1.246,0.372 -2.494,0.726 -3.749,1.059c-0.63,0.169 -1.263,0.334 -1.896,0.492c-0.727,0.181 -1.452,0.362 -2.181,0.53c-1.153,0.268 -2.312,0.521 -3.476,0.756c-0.642,0.13 -1.285,0.249 -1.93,0.369c-0.851,0.16 -1.705,0.311 -2.563,0.454c-0.563,0.093 -1.122,0.191 -1.686,0.278c-0.332,0.051 -0.666,0.094 -0.998,0.143c-0.076,0.016 -0.155,0.019 -0.231,0.032c-0.894,0.128 -1.788,0.25 -2.688,0.36c-0.509,0.062 -1.02,0.118 -1.529,0.175c-1.182,0.131 -2.367,0.246 -3.558,0.345c-0.281,0.023 -0.562,0.053 -0.842,0.075c-1.452,0.11 -2.912,0.19 -4.376,0.253c-0.39,0.017 -0.778,0.031 -1.169,0.044c-1.51,0.053 -3.023,0.088 -4.545,0.088c-1.523,0 -3.038,-0.035 -4.549,-0.088c-0.385,-0.013 -0.771,-0.027 -1.157,-0.044c-1.47,-0.063 -2.935,-0.143 -4.392,-0.254c-0.263,-0.021 -0.523,-0.049 -0.786,-0.069c-1.218,-0.101 -2.432,-0.22 -3.64,-0.354c-0.487,-0.053 -0.973,-0.107 -1.459,-0.167c-0.951,-0.115 -1.896,-0.244 -2.839,-0.38c-0.071,-0.013 -0.146,-0.016 -0.215,-0.03c-0.309,-0.045 -0.621,-0.086 -0.929,-0.134c-0.521,-0.08 -1.04,-0.171 -1.56,-0.257c-0.916,-0.153 -1.828,-0.314 -2.738,-0.484c-0.601,-0.113 -1.201,-0.224 -1.799,-0.344c-1.197,-0.244 -2.389,-0.503 -3.575,-0.778c-0.683,-0.158 -1.363,-0.328 -2.044,-0.498c-0.702,-0.175 -1.401,-0.356 -2.099,-0.543c-1.136,-0.304 -2.266,-0.624 -3.394,-0.957c-0.626,-0.186 -1.252,-0.37 -1.874,-0.564c-0.388,-0.122 -0.78,-0.227 -1.168,-0.353l0,23.741l-31.625,0c-2.587,0 -4.686,2.098 -4.686,4.686c0,2.589 2.099,4.686 4.686,4.686l31.625,0l0,17.444l-31.625,0c-2.587,0 -4.686,2.098 -4.686,4.686s2.099,4.686 4.686,4.686l31.625,0l0,17.442l13.278,0l53.883,0l13.271,0l0,-17.442l30.966,0c2.588,0 4.686,-2.098 4.686,-4.686s-2.098,-4.686 -4.686,-4.686l-30.966,0l0,-17.444l30.971,0z"/>
 </g>
</svg>